# xmcd CD database file
#
# Track frame offsets:
#	150
#	17217
#	41862
#	58855
#
# Disc length: 1109 seconds
#
# Revision: 6
# Processed by: cddbd v1.5PL3 Copyright (c) Steve Scherf et al.
# Submitted via: CDex 1.51
#
DISCID=34045304
DTITLE=中山静香 - ミラクルパワー〜スターダスト☆バージョン〜
DYEAR=2001
DGENRE=Anime
TTITLE0=ミラクルパワー〜スターダスト☆バージョン〜
TTITLE1=星に願いを
TTITLE2=ミラクルパワー〜スターダスト☆バージョン〜（オリジナル・カラオケ）
TTITLE3=星に願いを（オリジナル・カラオケ）
EXTD=YEAR: 2001
EXTT0=
EXTT1=
EXTT2=
EXTT3=
PLAYORDER=
